<svg width="37" height="37" viewBox="0 0 37 37" fill="none" xmlns="http://www.w3.org/2000/svg">
    <path d="M18.176 9.84019C16.5283 9.84019 14.9177 10.3285 13.5477 11.2434C12.1777 12.1583 11.11 13.4587 10.4795 14.9802C9.84892 16.5016 9.68395 18.1757 10.0054 19.7909C10.3268 21.406 11.1202 22.8896 12.2853 24.0541C13.4504 25.2186 14.9348 26.0116 16.5507 26.3328C18.1667 26.6541 19.8417 26.4892 21.364 25.859C22.8862 25.2288 24.1873 24.1616 25.1027 22.7924C26.018 21.4231 26.5066 19.8133 26.5066 18.1665C26.5066 15.9582 25.6289 13.8404 24.0666 12.2789C22.5043 10.7174 20.3854 9.84019 18.176 9.84019ZM18.176 24.9789C16.8279 24.9789 15.5101 24.5794 14.3892 23.8308C13.2683 23.0823 12.3947 22.0183 11.8788 20.7735C11.3629 19.5287 11.228 18.1589 11.4909 16.8375C11.7539 15.516 12.4031 14.3021 13.3563 13.3494C14.3096 12.3966 15.5241 11.7478 16.8462 11.485C18.1684 11.2221 19.5389 11.357 20.7843 11.8726C22.0298 12.3882 23.0943 13.2614 23.8433 14.3817C24.5922 15.502 24.992 16.8191 24.992 18.1665C24.992 19.9733 24.2738 21.706 22.9956 22.9836C21.7174 24.2612 19.9837 24.9789 18.176 24.9789ZM26.5066 0H9.84532C7.23418 0 4.72998 1.03673 2.88363 2.88212C1.03727 4.72752 0 7.23041 0 9.84019V26.4928C0 27.7851 0.254656 29.0646 0.74943 30.2585C1.2442 31.4524 1.9694 32.5371 2.88363 33.4509C4.72998 35.2963 7.23418 36.333 9.84532 36.333H26.5066C27.7995 36.333 29.0798 36.0785 30.2743 35.584C31.4687 35.0895 32.5541 34.3646 33.4683 33.4509C34.3825 32.5371 35.1077 31.4524 35.6025 30.2585C36.0973 29.0646 36.3519 27.7851 36.3519 26.4928V9.84019C36.3519 8.54796 36.0973 7.26838 35.6025 6.07451C35.1077 4.88065 34.3825 3.79587 33.4683 2.88212C32.5541 1.96838 31.4687 1.24356 30.2743 0.74904C29.0798 0.254524 27.7995 0 26.5066 0ZM34.8373 26.4928C34.8373 28.7011 33.9596 30.8189 32.3973 32.3804C30.835 33.9419 28.716 34.8191 26.5066 34.8191H9.84532C7.63589 34.8191 5.51696 33.9419 3.95466 32.3804C2.39236 30.8189 1.51466 28.7011 1.51466 26.4928V9.84019C1.51466 7.63191 2.39236 5.51408 3.95466 3.9526C5.51696 2.39111 7.63589 1.51388 9.84532 1.51388H26.5066C28.716 1.51388 30.835 2.39111 32.3973 3.9526C33.9596 5.51408 34.8373 7.63191 34.8373 9.84019V26.4928ZM29.5359 8.32631C29.5359 8.62573 29.4471 8.91842 29.2807 9.16738C29.1143 9.41634 28.8777 9.61037 28.6009 9.72495C28.3242 9.83954 28.0196 9.86952 27.7258 9.8111C27.432 9.75269 27.1621 9.60851 26.9503 9.39679C26.7384 9.18507 26.5942 8.91532 26.5357 8.62166C26.4773 8.32799 26.5073 8.0236 26.6219 7.74698C26.7366 7.47036 26.9307 7.23392 27.1798 7.06757C27.4289 6.90123 27.7217 6.81244 28.0213 6.81244C28.423 6.81244 28.8083 6.97194 29.0923 7.25584C29.3764 7.53975 29.5359 7.92481 29.5359 8.32631Z"
          fill="#ec4899d9"/>
</svg>
