<svg width="48" height="47" viewBox="0 0 48 47" fill="none" xmlns="http://www.w3.org/2000/svg">
    <path d="M41.0338 29.7661L32.3645 25.8868C32.0285 25.7413 31.6614 25.682 31.2967 25.714C30.9319 25.7461 30.5808 25.8686 30.2753 26.0704C30.2508 26.0859 30.2275 26.103 30.2055 26.1218L25.6524 30.003C25.551 30.0648 25.436 30.1006 25.3175 30.1073C25.1991 30.1141 25.0807 30.0915 24.9731 30.0415C21.9915 28.6021 18.9053 25.5398 17.4659 22.5931C17.415 22.4863 17.3914 22.3685 17.3971 22.2502C17.4029 22.132 17.4379 22.017 17.499 21.9157L21.3912 17.2873C21.4095 17.2652 21.426 17.2414 21.4426 17.2175C21.6438 16.9124 21.7659 16.562 21.7979 16.1979C21.83 15.8338 21.771 15.4675 21.6262 15.1319L17.7395 6.47726C17.5518 6.03892 17.2271 5.67329 16.8139 5.43526C16.4008 5.19724 15.9215 5.09968 15.4482 5.15722C13.1378 5.46184 11.0173 6.59708 9.48276 8.3509C7.94821 10.1047 7.10456 12.3572 7.1094 14.6876C7.1094 28.861 18.6391 40.3907 32.8125 40.3907C35.1429 40.3955 37.3954 39.5519 39.1492 38.0173C40.903 36.4828 42.0383 34.3623 42.3429 32.0519C42.4 31.5807 42.3034 31.1037 42.0676 30.6918C41.8317 30.28 41.4691 29.9553 41.0338 29.7661ZM40.8906 31.8683C40.6314 33.8249 39.6684 35.6202 38.1816 36.9183C36.6949 38.2165 34.7863 38.9288 32.8125 38.9219C19.4506 38.9219 8.57815 28.0495 8.57815 14.6876C8.57131 12.7138 9.28357 10.8052 10.5818 9.31845C11.8799 7.83172 13.6752 6.8687 15.6318 6.60945C15.6612 6.60762 15.6906 6.60762 15.7199 6.60945C15.8648 6.61068 16.0061 6.65474 16.126 6.73609C16.2459 6.81743 16.339 6.93243 16.3937 7.06659L20.2694 15.7212C20.3146 15.827 20.3344 15.9419 20.327 16.0567C20.3197 16.1715 20.2855 16.283 20.2272 16.3821L16.3368 21.0087C16.3185 21.0326 16.3001 21.0546 16.2836 21.0803C16.0763 21.3973 15.9542 21.7623 15.9292 22.1401C15.9041 22.518 15.9768 22.896 16.1404 23.2375C17.7358 26.5037 21.0258 29.7698 24.3287 31.3652C24.6725 31.5277 25.0527 31.5984 25.432 31.5704C25.8113 31.5424 26.1769 31.4167 26.4932 31.2055L26.5612 31.1541L31.1198 27.2766C31.2173 27.217 31.3276 27.1815 31.4415 27.1728C31.5555 27.1642 31.6698 27.1828 31.7752 27.227L40.4427 31.1119C40.5889 31.1728 40.7116 31.2793 40.7923 31.4156C40.8731 31.552 40.9076 31.7107 40.8906 31.8683Z" fill="#EC5E4D"/>
</svg>
