<svg width="42" height="37" viewBox="0 0 42 37" fill="none" xmlns="http://www.w3.org/2000/svg">
    <path d="M40.22 0.563685C39.901 0.288319 39.513 0.105054 39.0976 0.0335913C38.6822 -0.037871 38.2552 0.00517255 37.8625 0.158095L2.20991 14.1606C1.74658 14.3449 1.35502 14.6735 1.09331 15.0977C0.831608 15.522 0.713701 16.0192 0.757087 16.5157C0.800472 17.0122 1.00284 17.4816 1.33416 17.854C1.66549 18.2265 2.10812 18.4823 2.59639 18.5835L12.2777 20.5342V32.4701C12.2718 32.93 12.4052 33.3808 12.6604 33.7634C12.9157 34.146 13.2807 34.4425 13.7076 34.614C13.9966 34.7289 14.3048 34.7879 14.6159 34.7878C14.9177 34.7881 15.2166 34.7285 15.4953 34.6125C15.7739 34.4964 16.0267 34.3263 16.2391 34.1118L21.7657 28.5881L29.9204 35.7535C30.3382 36.1316 30.8833 36.3385 31.447 36.3329C31.6899 36.3323 31.9312 36.2932 32.1619 36.217C32.5419 36.0924 32.8835 35.8725 33.1541 35.5784C33.4248 35.2842 33.6154 34.9255 33.7079 34.5367L40.9736 2.8234C41.0688 2.41392 41.0487 1.98611 40.9157 1.58731C40.7827 1.1885 40.5419 0.834234 40.22 0.563685ZM2.28721 16.3817C2.26423 16.2143 2.29974 16.0441 2.38775 15.8998C2.47576 15.7556 2.61089 15.6461 2.77031 15.5898L35.4663 2.76546L12.8767 19.0663L2.90557 17.077C2.7395 17.0471 2.58829 16.9622 2.47617 16.8362C2.36405 16.7101 2.29751 16.5501 2.28721 16.3817ZM15.1376 33.0109C15.0326 33.12 14.8972 33.1949 14.749 33.2259C14.6007 33.2569 14.4466 33.2426 14.3067 33.1847C14.1642 33.1271 14.0421 33.0284 13.9561 32.9011C13.87 32.7738 13.8239 32.6238 13.8236 32.4701V21.5964L20.6063 27.5644L15.1376 33.0109ZM39.4664 2.49507L32.2006 34.1891C32.1716 34.3205 32.1079 34.4418 32.0162 34.5403C31.9244 34.6388 31.8079 34.7109 31.6788 34.7492C31.5541 34.794 31.4194 34.8032 31.2898 34.7759C31.1601 34.7486 31.0406 34.6859 30.9445 34.5947L14.2873 19.9548L39.3504 1.85771C39.4136 1.94978 39.4566 2.05416 39.4766 2.164C39.4966 2.27384 39.4931 2.38667 39.4664 2.49507Z" fill="#EC5E4D"/>
</svg>
